<?xml version="1.0" encoding="UTF-8"?>
<svg version="1.1" xmlns="http://www.w3.org/2000/svg" width="512" height="512">
<path d="M0 0 C0.91297852 0.16628906 1.82595703 0.33257812 2.76660156 0.50390625 C44.3986228 8.16363077 83.16052206 26.40624883 116 53 C116.54446777 53.44005371 117.08893555 53.88010742 117.64990234 54.33349609 C131.72173929 65.81174863 144.93680647 78.57719064 156 93 C156.75925781 93.93070312 157.51851563 94.86140625 158.30078125 95.8203125 C184.1596216 128.07168914 200.62794761 167.52514646 208 208 C208.16371094 208.83563477 208.32742188 209.67126953 208.49609375 210.53222656 C213.78656862 238.24163521 213.41678597 270.35093304 208 298 C207.83371094 298.91297852 207.66742188 299.82595703 207.49609375 300.76660156 C199.83636923 342.3986228 181.59375117 381.16052206 155 414 C154.55994629 414.54446777 154.11989258 415.08893555 153.66650391 415.64990234 C142.18825137 429.72173929 129.42280936 442.93680647 115 454 C114.06929688 454.75925781 113.13859375 455.51851563 112.1796875 456.30078125 C79.92831086 482.1596216 40.47485354 498.62794761 0 506 C-0.83563477 506.16371094 -1.67126953 506.32742188 -2.53222656 506.49609375 C-30.24163521 511.78656862 -62.35093304 511.41678597 -90 506 C-90.91297852 505.83371094 -91.82595703 505.66742188 -92.76660156 505.49609375 C-134.3986228 497.83636923 -173.16052206 479.59375117 -206 453 C-206.54446777 452.55994629 -207.08893555 452.11989258 -207.64990234 451.66650391 C-221.72173929 440.18825137 -234.93680647 427.42280936 -246 413 C-246.75925781 412.06929688 -247.51851562 411.13859375 -248.30078125 410.1796875 C-280.2851447 370.28850374 -300.93384999 316.53121826 -301.203125 265.20703125 C-301.21013931 264.30644485 -301.21715363 263.40585846 -301.22438049 262.47798157 C-301.24177809 259.58943619 -301.24823227 256.70109584 -301.25 253.8125 C-301.25101212 252.33194122 -301.25101212 252.33194122 -301.25204468 250.82147217 C-301.23631228 236.35031441 -300.87100014 222.23005389 -298 208 C-297.82307617 207.09813965 -297.64615234 206.1962793 -297.46386719 205.26708984 C-292.19592242 179.01380036 -283.50980755 154.65534022 -271 131 C-270.65888184 130.34966797 -270.31776367 129.69933594 -269.96630859 129.02929688 C-261.48235685 112.98605324 -251.00686611 98.57615256 -239 85 C-238.27554688 84.1646875 -237.55109375 83.329375 -236.8046875 82.46875 C-227.0599286 71.39352587 -216.66037586 61.04885088 -205 52 C-204.06542969 51.236875 -203.13085938 50.47375 -202.16796875 49.6875 C-169.90395064 23.84315173 -130.47895618 7.37279964 -90 0 C-89.16436523 -0.16371094 -88.32873047 -0.32742188 -87.46777344 -0.49609375 C-59.75836479 -5.78656862 -27.64906696 -5.41678597 0 0 Z M-86 36 C-86.84401367 36.17160645 -87.68802734 36.34321289 -88.55761719 36.52001953 C-101.76254463 39.23925284 -114.4309504 43.14121814 -127 48 C-127.68868164 48.26506348 -128.37736328 48.53012695 -129.08691406 48.80322266 C-152.27942761 57.91008113 -173.92595911 71.90384565 -192 89 C-193.36981522 90.19347707 -194.74464217 91.38123224 -196.125 92.5625 C-203.9267051 99.39485496 -210.57367382 106.86851264 -217 115 C-217.41040527 115.51224121 -217.82081055 116.02448242 -218.24365234 116.55224609 C-224.48503956 124.35097598 -229.95187664 132.36165924 -235 141 C-235.71402961 142.16586359 -236.42889458 143.33121592 -237.14453125 144.49609375 C-254.18640652 172.81910461 -265.01163917 208.70347576 -265.203125 241.890625 C-265.21013931 242.70917465 -265.21715363 243.5277243 -265.22438049 244.37107849 C-265.24178269 246.99744232 -265.24823262 249.62358063 -265.25 252.25 C-265.25101212 253.59658188 -265.25101212 253.59658188 -265.25204468 254.97036743 C-265.23621857 268.2114981 -264.79754516 281.01393183 -262 294 C-261.82839355 294.84401367 -261.65678711 295.68802734 -261.47998047 296.55761719 C-258.76074716 309.76254463 -254.85878186 322.4309504 -250 335 C-249.73493652 335.68868164 -249.46987305 336.37736328 -249.19677734 337.08691406 C-240.08991887 360.27942761 -226.09615435 381.92595911 -209 400 C-207.80652293 401.36981522 -206.61876776 402.74464217 -205.4375 404.125 C-198.60324868 411.9288705 -191.12498355 418.56234769 -183 425 C-182.04609375 425.78246094 -181.0921875 426.56492187 -180.109375 427.37109375 C-146.08643432 454.63306545 -99.95717891 472.95012848 -56.109375 473.203125 C-55.29082535 473.21013931 -54.4722757 473.21715363 -53.62892151 473.22438049 C-51.00255768 473.24178269 -48.37641937 473.24823262 -45.75 473.25 C-44.85227875 473.25067474 -43.9545575 473.25134949 -43.02963257 473.25204468 C-29.7885019 473.23621857 -16.98606817 472.79754516 -4 470 C-3.15598633 469.82839355 -2.31197266 469.65678711 -1.44238281 469.47998047 C11.76254463 466.76074716 24.4309504 462.85878186 37 458 C37.68868164 457.73493652 38.37736328 457.46987305 39.08691406 457.19677734 C73.40320944 443.7220134 105.62303153 419.31528175 128 390 C128.49113281 389.35820801 128.98226563 388.71641602 129.48828125 388.05517578 C137.24304442 377.84520931 144.00810986 367.39865349 149.93603516 356.02978516 C150.88507238 354.21925384 151.86802389 352.42659248 152.85546875 350.63671875 C162.24590836 333.03770264 168.1584616 313.50763193 172 294 C172.16226074 293.24058105 172.32452148 292.48116211 172.49169922 291.69873047 C177.7238282 266.65038543 177.38168621 236.98152488 172 212 C171.82839355 211.15598633 171.65678711 210.31197266 171.47998047 209.44238281 C168.76074716 196.23745537 164.85878186 183.5690496 160 171 C159.60240479 169.96697754 159.60240479 169.96697754 159.19677734 168.91308594 C148.4701225 141.59542325 130.98210202 118.20306503 111 97 C109.96552734 95.90171875 109.96552734 95.90171875 108.91015625 94.78125 C94.9436412 80.38631424 77.65621625 68.29759841 59.92822266 59.01318359 C58.04834062 58.02540055 56.18655462 57.00866437 54.32421875 55.98828125 C36.14420209 46.24617659 16.18095738 39.97413294 -4 36 C-4.75941895 35.83773926 -5.51883789 35.67547852 -6.30126953 35.50830078 C-31.34961457 30.2761718 -61.01847512 30.61831379 -86 36 Z " fill="#ffffff" transform="translate(301,3)"/>
<path d="M0 0 C4.41854291 3.11306432 8.02390999 6.75922996 9.75 11.9375 C9.98828125 13.91796875 9.98828125 13.91796875 10.0625 16.125 C10.11857422 17.19814453 10.11857422 17.19814453 10.17578125 18.29296875 C8.99256637 25.64192723 4.39828593 30.86644867 -0.76269531 35.90429688 C-1.40701508 36.54920074 -2.05133484 37.19410461 -2.71517944 37.85855103 C-4.82681107 39.96741738 -6.95220782 42.06179403 -9.078125 44.15625 C-10.55301787 45.62367499 -12.02702447 47.09199124 -13.50018311 48.56115723 C-17.36458042 52.41034153 -21.24084121 56.24735721 -25.11975098 60.08190918 C-29.08190335 64.00301561 -33.03264213 67.93558532 -36.984375 71.8671875 C-44.7284952 79.56851327 -52.48520494 87.25702384 -60.25 94.9375 C-59.24116729 94.93896656 -58.23233458 94.94043312 -57.19293118 94.94194412 C-32.64715549 94.97853717 -8.10151627 95.03798426 16.44414616 95.12140274 C28.31424754 95.16121407 40.18428241 95.19359596 52.05444336 95.20849609 C62.40033453 95.22150171 72.74607952 95.24843862 83.09188837 95.29211307 C88.57006636 95.31475225 94.04806388 95.3304092 99.5262928 95.32938385 C104.6834167 95.3286387 109.84014127 95.34653143 114.99716187 95.37866783 C116.88895789 95.38718087 118.78079864 95.38890725 120.67260551 95.38330269 C123.25864863 95.3766624 125.84342132 95.39458344 128.42933655 95.41851807 C129.17546347 95.41075765 129.9215904 95.40299723 130.69032723 95.39500165 C136.82221612 95.4952569 140.97905413 97.39643081 145.4921875 101.53515625 C149.88097466 107.21031206 150.51749776 111.92342326 149.75 118.9375 C147.77564881 124.62448983 143.89898071 128.34942934 138.59248066 131.02556419 C134.94322353 132.1963332 131.49899391 132.22577816 127.70780945 132.2159729 C126.90316106 132.2217653 126.09851267 132.2275577 125.269481 132.23352563 C122.57634177 132.2505154 119.88337402 132.25340125 117.19018555 132.25634766 C115.25843384 132.26564654 113.32668615 132.27581515 111.39494324 132.28678894 C106.15161342 132.3141075 100.9083105 132.32924389 95.6649282 132.34221697 C90.18493802 132.35783934 84.70500282 132.38463243 79.22505188 132.4102478 C68.84836064 132.45705137 58.47165908 132.49378787 48.09491616 132.52692068 C36.28120624 132.56513088 24.46755151 132.61454394 12.65388811 132.66490483 C-11.64736702 132.76824818 -35.94865761 132.8575008 -60.25 132.9375 C-59.41728073 133.76133682 -58.58456146 134.58517365 -57.72660828 135.43397522 C-49.87333567 143.20609678 -42.03069526 150.98880769 -34.19829082 158.78196049 C-30.17140714 162.78798603 -26.14089455 166.79021228 -22.10180664 170.78393555 C-18.20267017 174.63955266 -14.3134386 178.50491096 -10.43082619 182.37716484 C-8.94918842 183.85142231 -7.46403922 185.32215959 -5.975317 186.78926277 C-3.88774268 188.84772382 -1.81310207 190.91844548 0.2590332 192.99243164 C0.87474686 193.59376419 1.49046051 194.19509674 2.12483215 194.81465149 C6.41702887 199.14840916 9.14278361 203.21681136 10.1484375 209.37890625 C10.08472715 215.14469279 9.33913297 219.33000438 5.09765625 223.6015625 C0.82854203 227.41037054 -2.23173256 229.08002042 -8.0625 229.1875 C-9.30966797 229.22617187 -9.30966797 229.22617187 -10.58203125 229.265625 C-16.10519997 228.58634803 -19.98847318 225.57413745 -23.8303833 221.73806763 C-24.69398468 220.88292572 -25.55758606 220.02778381 -26.44735718 219.14672852 C-27.37641876 218.21159424 -28.30548035 217.27645996 -29.26269531 216.31298828 C-30.26462944 215.31512295 -31.26719986 214.31789615 -32.27035522 213.32125854 C-34.98369762 210.62155698 -37.6875075 207.91249502 -40.38926792 205.20120859 C-43.22122243 202.36164286 -46.06050738 199.52942201 -48.89862061 196.6960144 C-53.66178197 191.93830543 -58.41859527 187.17431828 -63.171875 182.40673828 C-68.66491685 176.89736157 -74.16869531 171.39888817 -79.67815709 165.90593541 C-84.41246836 161.1852425 -89.14090273 156.45872285 -93.86448359 151.7272929 C-96.68388048 148.90322265 -99.50525636 146.08120974 -102.33194733 143.26443863 C-104.98832063 140.6167381 -107.6372347 137.96179318 -110.28059769 135.3011055 C-111.25113278 134.32660765 -112.22422248 133.35464628 -113.20004654 132.38544464 C-114.53282462 131.06087944 -115.85545054 129.72612251 -117.17755127 128.39089966 C-117.92009785 127.647222 -118.66264442 126.90354435 -119.42769241 126.13733101 C-122.53849909 122.3820654 -123.53966839 118.81746926 -123.5625 114 C-123.57925781 113.18660156 -123.59601563 112.37320313 -123.61328125 111.53515625 C-122.84719374 106.05721866 -119.86869831 102.18106036 -116.05056763 98.3571167 C-115.19542572 97.49351532 -114.34028381 96.62991394 -113.45922852 95.74014282 C-112.52409424 94.81108124 -111.58895996 93.88201965 -110.62548828 92.92480469 C-109.62762295 91.92287056 -108.63039615 90.92030014 -107.63375854 89.91714478 C-104.93405698 87.20380238 -102.22499502 84.4999925 -99.51370859 81.79823208 C-96.67414286 78.96627757 -93.84192201 76.12699262 -91.0085144 73.28887939 C-86.25080543 68.52571803 -81.48681828 63.76890473 -76.71923828 59.015625 C-71.20986157 53.52258315 -65.71138817 48.01880469 -60.21843541 42.50934291 C-55.4977425 37.77503164 -50.77122285 33.04659727 -46.0397929 28.32301641 C-43.21572265 25.50361952 -40.39370974 22.68224364 -37.57693863 19.85555267 C-34.9292381 17.19917937 -32.27429318 14.5502653 -29.6136055 11.90690231 C-28.63910765 10.93636722 -27.66714628 9.96327752 -26.69794464 8.98745346 C-25.37337944 7.65467538 -24.03862251 6.33204946 -22.70339966 5.00994873 C-21.959722 4.26740215 -21.21604435 3.52485558 -20.44983101 2.75980759 C-14.54254929 -2.13369753 -7.07797319 -2.31395277 0 0 Z " fill="#ffffff" transform="translate(242.25,142.0625)"/>
</svg>
